<svg width="20" height="20" viewBox="0 0 20 20" fill="none" xmlns="http://www.w3.org/2000/svg">
<path fill-rule="evenodd" clip-rule="evenodd" d="M14.32 12.906L19.707 18.293L18.293 19.707L12.906 14.32C11.2985 15.5678 9.27579 16.1562 7.24975 15.9652C5.22371 15.7742 3.3466 14.8183 2.00054 13.2921C0.654488 11.7658 -0.0593238 9.78394 0.0044173 7.74992C0.0681584 5.71589 0.904661 3.78261 2.34364 2.34364C3.78261 0.904661 5.71589 0.0681584 7.74992 0.0044173C9.78394 -0.0593238 11.7658 0.654488 13.2921 2.00054C14.8183 3.3466 15.7742 5.22371 15.9652 7.24975C16.1562 9.27579 15.5678 11.2985 14.32 12.906ZM7.99999 14C9.59129 14 11.1174 13.3679 12.2426 12.2426C13.3679 11.1174 14 9.59129 14 7.99999C14 6.40869 13.3679 4.88257 12.2426 3.75735C11.1174 2.63213 9.59129 1.99999 7.99999 1.99999C6.40869 1.99999 4.88257 2.63213 3.75735 3.75735C2.63213 4.88257 1.99999 6.40869 1.99999 7.99999C1.99999 9.59129 2.63213 11.1174 3.75735 12.2426C4.88257 13.3679 6.40869 14 7.99999 14Z" fill="white"/>
</svg>
